<mxfile host="app.diagrams.net" modified="2024-01-02T14:01:25.880Z" agent="Mozilla/5.0 (Macintosh; Intel Mac OS X 10_15_7) AppleWebKit/605.1.15 (KHTML, like Gecko) Version/16.2 Safari/605.1.15" etag="Ls5E8bID_5jtVZpxN37z" version="22.1.16" type="device">
  <diagram name="Page-1" id="80Xx5_V7AYoYYCBFcPBS">
    <mxGraphModel dx="752" dy="622" grid="1" gridSize="10" guides="1" tooltips="1" connect="1" arrows="1" fold="1" page="1" pageScale="1" pageWidth="850" pageHeight="1100" math="0" shadow="0">
      <root>
        <mxCell id="0" />
        <mxCell id="1" parent="0" />
        <mxCell id="6V_RxtZbmtCBJ1EOpkRF-320" value="" style="ellipse;html=1;shape=startState;fillColor=#000000;strokeColor=#ff0000;" vertex="1" parent="1">
          <mxGeometry x="280" y="10" width="30" height="30" as="geometry" />
        </mxCell>
        <mxCell id="6V_RxtZbmtCBJ1EOpkRF-321" value="" style="edgeStyle=orthogonalEdgeStyle;html=1;verticalAlign=bottom;endArrow=open;endSize=8;strokeColor=#ff0000;rounded=0;" edge="1" parent="1" source="6V_RxtZbmtCBJ1EOpkRF-320">
          <mxGeometry relative="1" as="geometry">
            <mxPoint x="295" y="100" as="targetPoint" />
          </mxGeometry>
        </mxCell>
        <mxCell id="6V_RxtZbmtCBJ1EOpkRF-352" value="" style="ellipse;html=1;shape=endState;fillColor=#000000;strokeColor=#ff0000;" vertex="1" parent="1">
          <mxGeometry x="80" y="440" width="30" height="30" as="geometry" />
        </mxCell>
        <mxCell id="6V_RxtZbmtCBJ1EOpkRF-395" style="edgeStyle=orthogonalEdgeStyle;rounded=0;orthogonalLoop=1;jettySize=auto;html=1;exitX=0.5;exitY=1;exitDx=0;exitDy=0;exitPerimeter=0;entryX=0.5;entryY=0;entryDx=0;entryDy=0;" edge="1" parent="1" target="6V_RxtZbmtCBJ1EOpkRF-352">
          <mxGeometry relative="1" as="geometry">
            <mxPoint x="95.00000000000011" y="400" as="sourcePoint" />
          </mxGeometry>
        </mxCell>
        <mxCell id="6V_RxtZbmtCBJ1EOpkRF-399" value="执行命令具体逻辑" style="strokeWidth=2;html=1;shape=mxgraph.flowchart.terminator;whiteSpace=wrap;" vertex="1" parent="1">
          <mxGeometry x="245" y="100" width="100" height="60" as="geometry" />
        </mxCell>
        <mxCell id="6V_RxtZbmtCBJ1EOpkRF-401" value="消耗资源" style="strokeWidth=2;html=1;shape=mxgraph.flowchart.terminator;whiteSpace=wrap;" vertex="1" parent="1">
          <mxGeometry x="360" y="340" width="100" height="60" as="geometry" />
        </mxCell>
        <mxCell id="6V_RxtZbmtCBJ1EOpkRF-402" value="检查条件" style="strokeWidth=2;html=1;shape=mxgraph.flowchart.terminator;whiteSpace=wrap;" vertex="1" parent="1">
          <mxGeometry x="520" y="210" width="100" height="60" as="geometry" />
        </mxCell>
        <mxCell id="6V_RxtZbmtCBJ1EOpkRF-403" value="检查单元格状态" style="strokeWidth=2;html=1;shape=mxgraph.flowchart.terminator;whiteSpace=wrap;" vertex="1" parent="1">
          <mxGeometry x="40" y="210" width="100" height="60" as="geometry" />
        </mxCell>
        <mxCell id="6V_RxtZbmtCBJ1EOpkRF-404" value="检查建筑类型" style="strokeWidth=2;html=1;shape=mxgraph.flowchart.terminator;whiteSpace=wrap;" vertex="1" parent="1">
          <mxGeometry x="200" y="210" width="100" height="60" as="geometry" />
        </mxCell>
        <mxCell id="6V_RxtZbmtCBJ1EOpkRF-405" value="检查建筑上限" style="strokeWidth=2;html=1;shape=mxgraph.flowchart.terminator;whiteSpace=wrap;" vertex="1" parent="1">
          <mxGeometry x="360" y="210" width="100" height="60" as="geometry" />
        </mxCell>
        <mxCell id="6V_RxtZbmtCBJ1EOpkRF-447" value="检查资源" style="strokeWidth=2;html=1;shape=mxgraph.flowchart.terminator;whiteSpace=wrap;" vertex="1" parent="1">
          <mxGeometry x="520" y="340" width="100" height="60" as="geometry" />
        </mxCell>
        <mxCell id="6V_RxtZbmtCBJ1EOpkRF-448" value="改变单元格状态" style="strokeWidth=2;html=1;shape=mxgraph.flowchart.terminator;whiteSpace=wrap;" vertex="1" parent="1">
          <mxGeometry x="45" y="340" width="100" height="60" as="geometry" />
        </mxCell>
        <mxCell id="6V_RxtZbmtCBJ1EOpkRF-449" value="产出" style="strokeWidth=2;html=1;shape=mxgraph.flowchart.terminator;whiteSpace=wrap;" vertex="1" parent="1">
          <mxGeometry x="200" y="340" width="100" height="60" as="geometry" />
        </mxCell>
        <mxCell id="6V_RxtZbmtCBJ1EOpkRF-458" style="edgeStyle=orthogonalEdgeStyle;rounded=0;orthogonalLoop=1;jettySize=auto;html=1;exitX=0.5;exitY=1;exitDx=0;exitDy=0;exitPerimeter=0;entryX=0.5;entryY=0;entryDx=0;entryDy=0;" edge="1" parent="1" source="6V_RxtZbmtCBJ1EOpkRF-451" target="6V_RxtZbmtCBJ1EOpkRF-456">
          <mxGeometry relative="1" as="geometry" />
        </mxCell>
        <mxCell id="6V_RxtZbmtCBJ1EOpkRF-451" value="" style="strokeWidth=2;html=1;shape=mxgraph.flowchart.decision;whiteSpace=wrap;" vertex="1" parent="1">
          <mxGeometry x="150" y="220" width="40" height="40" as="geometry" />
        </mxCell>
        <mxCell id="6V_RxtZbmtCBJ1EOpkRF-453" style="edgeStyle=orthogonalEdgeStyle;rounded=0;orthogonalLoop=1;jettySize=auto;html=1;exitX=1;exitY=0.5;exitDx=0;exitDy=0;exitPerimeter=0;entryX=0;entryY=0.5;entryDx=0;entryDy=0;entryPerimeter=0;" edge="1" parent="1" source="6V_RxtZbmtCBJ1EOpkRF-403" target="6V_RxtZbmtCBJ1EOpkRF-451">
          <mxGeometry relative="1" as="geometry" />
        </mxCell>
        <mxCell id="6V_RxtZbmtCBJ1EOpkRF-455" style="edgeStyle=orthogonalEdgeStyle;rounded=0;orthogonalLoop=1;jettySize=auto;html=1;exitX=1;exitY=0.5;exitDx=0;exitDy=0;exitPerimeter=0;entryX=0;entryY=0.5;entryDx=0;entryDy=0;entryPerimeter=0;" edge="1" parent="1" source="6V_RxtZbmtCBJ1EOpkRF-451" target="6V_RxtZbmtCBJ1EOpkRF-404">
          <mxGeometry relative="1" as="geometry" />
        </mxCell>
        <mxCell id="6V_RxtZbmtCBJ1EOpkRF-456" value="" style="ellipse;html=1;shape=endState;fillColor=#000000;strokeColor=#ff0000;" vertex="1" parent="1">
          <mxGeometry x="155" y="270" width="30" height="30" as="geometry" />
        </mxCell>
        <mxCell id="6V_RxtZbmtCBJ1EOpkRF-459" style="edgeStyle=orthogonalEdgeStyle;rounded=0;orthogonalLoop=1;jettySize=auto;html=1;exitX=0.5;exitY=1;exitDx=0;exitDy=0;exitPerimeter=0;entryX=0.5;entryY=0;entryDx=0;entryDy=0;" edge="1" parent="1" source="6V_RxtZbmtCBJ1EOpkRF-460" target="6V_RxtZbmtCBJ1EOpkRF-463">
          <mxGeometry relative="1" as="geometry" />
        </mxCell>
        <mxCell id="6V_RxtZbmtCBJ1EOpkRF-460" value="" style="strokeWidth=2;html=1;shape=mxgraph.flowchart.decision;whiteSpace=wrap;" vertex="1" parent="1">
          <mxGeometry x="310" y="220" width="40" height="40" as="geometry" />
        </mxCell>
        <mxCell id="6V_RxtZbmtCBJ1EOpkRF-461" style="edgeStyle=orthogonalEdgeStyle;rounded=0;orthogonalLoop=1;jettySize=auto;html=1;exitX=1;exitY=0.5;exitDx=0;exitDy=0;exitPerimeter=0;entryX=0;entryY=0.5;entryDx=0;entryDy=0;entryPerimeter=0;" edge="1" parent="1" target="6V_RxtZbmtCBJ1EOpkRF-460">
          <mxGeometry relative="1" as="geometry">
            <mxPoint x="300" y="240" as="sourcePoint" />
          </mxGeometry>
        </mxCell>
        <mxCell id="6V_RxtZbmtCBJ1EOpkRF-462" style="edgeStyle=orthogonalEdgeStyle;rounded=0;orthogonalLoop=1;jettySize=auto;html=1;exitX=1;exitY=0.5;exitDx=0;exitDy=0;exitPerimeter=0;entryX=0;entryY=0.5;entryDx=0;entryDy=0;entryPerimeter=0;" edge="1" parent="1" source="6V_RxtZbmtCBJ1EOpkRF-460">
          <mxGeometry relative="1" as="geometry">
            <mxPoint x="360" y="240" as="targetPoint" />
          </mxGeometry>
        </mxCell>
        <mxCell id="6V_RxtZbmtCBJ1EOpkRF-463" value="" style="ellipse;html=1;shape=endState;fillColor=#000000;strokeColor=#ff0000;" vertex="1" parent="1">
          <mxGeometry x="315" y="270" width="30" height="30" as="geometry" />
        </mxCell>
        <mxCell id="6V_RxtZbmtCBJ1EOpkRF-464" style="edgeStyle=orthogonalEdgeStyle;rounded=0;orthogonalLoop=1;jettySize=auto;html=1;exitX=0.5;exitY=1;exitDx=0;exitDy=0;exitPerimeter=0;entryX=0.5;entryY=0;entryDx=0;entryDy=0;" edge="1" parent="1" source="6V_RxtZbmtCBJ1EOpkRF-465" target="6V_RxtZbmtCBJ1EOpkRF-468">
          <mxGeometry relative="1" as="geometry" />
        </mxCell>
        <mxCell id="6V_RxtZbmtCBJ1EOpkRF-465" value="" style="strokeWidth=2;html=1;shape=mxgraph.flowchart.decision;whiteSpace=wrap;" vertex="1" parent="1">
          <mxGeometry x="470" y="220" width="40" height="40" as="geometry" />
        </mxCell>
        <mxCell id="6V_RxtZbmtCBJ1EOpkRF-466" style="edgeStyle=orthogonalEdgeStyle;rounded=0;orthogonalLoop=1;jettySize=auto;html=1;exitX=1;exitY=0.5;exitDx=0;exitDy=0;exitPerimeter=0;entryX=0;entryY=0.5;entryDx=0;entryDy=0;entryPerimeter=0;" edge="1" parent="1" target="6V_RxtZbmtCBJ1EOpkRF-465">
          <mxGeometry relative="1" as="geometry">
            <mxPoint x="460" y="240" as="sourcePoint" />
          </mxGeometry>
        </mxCell>
        <mxCell id="6V_RxtZbmtCBJ1EOpkRF-467" style="edgeStyle=orthogonalEdgeStyle;rounded=0;orthogonalLoop=1;jettySize=auto;html=1;exitX=1;exitY=0.5;exitDx=0;exitDy=0;exitPerimeter=0;entryX=0;entryY=0.5;entryDx=0;entryDy=0;entryPerimeter=0;" edge="1" parent="1" source="6V_RxtZbmtCBJ1EOpkRF-465">
          <mxGeometry relative="1" as="geometry">
            <mxPoint x="520" y="240" as="targetPoint" />
          </mxGeometry>
        </mxCell>
        <mxCell id="6V_RxtZbmtCBJ1EOpkRF-468" value="" style="ellipse;html=1;shape=endState;fillColor=#000000;strokeColor=#ff0000;" vertex="1" parent="1">
          <mxGeometry x="475" y="270" width="30" height="30" as="geometry" />
        </mxCell>
        <mxCell id="6V_RxtZbmtCBJ1EOpkRF-469" style="edgeStyle=orthogonalEdgeStyle;rounded=0;orthogonalLoop=1;jettySize=auto;html=1;exitX=0.5;exitY=1;exitDx=0;exitDy=0;exitPerimeter=0;entryX=0.5;entryY=0;entryDx=0;entryDy=0;" edge="1" parent="1" source="6V_RxtZbmtCBJ1EOpkRF-470">
          <mxGeometry relative="1" as="geometry">
            <mxPoint x="570" y="340" as="targetPoint" />
          </mxGeometry>
        </mxCell>
        <mxCell id="6V_RxtZbmtCBJ1EOpkRF-470" value="" style="strokeWidth=2;html=1;shape=mxgraph.flowchart.decision;whiteSpace=wrap;" vertex="1" parent="1">
          <mxGeometry x="550" y="290" width="40" height="40" as="geometry" />
        </mxCell>
        <mxCell id="6V_RxtZbmtCBJ1EOpkRF-472" style="edgeStyle=orthogonalEdgeStyle;rounded=0;orthogonalLoop=1;jettySize=auto;html=1;exitX=1;exitY=0.5;exitDx=0;exitDy=0;exitPerimeter=0;entryX=0;entryY=0.5;entryDx=0;entryDy=0;" edge="1" parent="1" source="6V_RxtZbmtCBJ1EOpkRF-470" target="6V_RxtZbmtCBJ1EOpkRF-475">
          <mxGeometry relative="1" as="geometry">
            <mxPoint x="600" y="310" as="targetPoint" />
            <Array as="points" />
          </mxGeometry>
        </mxCell>
        <mxCell id="6V_RxtZbmtCBJ1EOpkRF-474" style="edgeStyle=orthogonalEdgeStyle;rounded=0;orthogonalLoop=1;jettySize=auto;html=1;exitX=0.5;exitY=1;exitDx=0;exitDy=0;exitPerimeter=0;entryX=0.5;entryY=0;entryDx=0;entryDy=0;entryPerimeter=0;" edge="1" parent="1" source="6V_RxtZbmtCBJ1EOpkRF-402" target="6V_RxtZbmtCBJ1EOpkRF-470">
          <mxGeometry relative="1" as="geometry" />
        </mxCell>
        <mxCell id="6V_RxtZbmtCBJ1EOpkRF-475" value="" style="ellipse;html=1;shape=endState;fillColor=#000000;strokeColor=#ff0000;" vertex="1" parent="1">
          <mxGeometry x="620" y="295" width="30" height="30" as="geometry" />
        </mxCell>
        <mxCell id="6V_RxtZbmtCBJ1EOpkRF-476" style="edgeStyle=orthogonalEdgeStyle;rounded=0;orthogonalLoop=1;jettySize=auto;html=1;exitX=0;exitY=0.5;exitDx=0;exitDy=0;exitPerimeter=0;entryX=0.5;entryY=0;entryDx=0;entryDy=0;entryPerimeter=0;" edge="1" parent="1" source="6V_RxtZbmtCBJ1EOpkRF-399" target="6V_RxtZbmtCBJ1EOpkRF-403">
          <mxGeometry relative="1" as="geometry" />
        </mxCell>
        <mxCell id="6V_RxtZbmtCBJ1EOpkRF-478" style="edgeStyle=orthogonalEdgeStyle;rounded=0;orthogonalLoop=1;jettySize=auto;html=1;exitX=0.5;exitY=1;exitDx=0;exitDy=0;exitPerimeter=0;entryX=0.5;entryY=0;entryDx=0;entryDy=0;" edge="1" parent="1" source="6V_RxtZbmtCBJ1EOpkRF-479" target="6V_RxtZbmtCBJ1EOpkRF-482">
          <mxGeometry relative="1" as="geometry" />
        </mxCell>
        <mxCell id="6V_RxtZbmtCBJ1EOpkRF-479" value="" style="strokeWidth=2;html=1;shape=mxgraph.flowchart.decision;whiteSpace=wrap;" vertex="1" parent="1">
          <mxGeometry x="470" y="350" width="40" height="40" as="geometry" />
        </mxCell>
        <mxCell id="6V_RxtZbmtCBJ1EOpkRF-482" value="" style="ellipse;html=1;shape=endState;fillColor=#000000;strokeColor=#ff0000;" vertex="1" parent="1">
          <mxGeometry x="475" y="400" width="30" height="30" as="geometry" />
        </mxCell>
        <mxCell id="6V_RxtZbmtCBJ1EOpkRF-483" style="edgeStyle=orthogonalEdgeStyle;rounded=0;orthogonalLoop=1;jettySize=auto;html=1;exitX=0;exitY=0.5;exitDx=0;exitDy=0;exitPerimeter=0;entryX=1;entryY=0.5;entryDx=0;entryDy=0;entryPerimeter=0;" edge="1" parent="1" source="6V_RxtZbmtCBJ1EOpkRF-447" target="6V_RxtZbmtCBJ1EOpkRF-479">
          <mxGeometry relative="1" as="geometry" />
        </mxCell>
        <mxCell id="6V_RxtZbmtCBJ1EOpkRF-484" style="edgeStyle=orthogonalEdgeStyle;rounded=0;orthogonalLoop=1;jettySize=auto;html=1;exitX=0;exitY=0.5;exitDx=0;exitDy=0;exitPerimeter=0;entryX=1;entryY=0.5;entryDx=0;entryDy=0;entryPerimeter=0;" edge="1" parent="1" source="6V_RxtZbmtCBJ1EOpkRF-479" target="6V_RxtZbmtCBJ1EOpkRF-401">
          <mxGeometry relative="1" as="geometry" />
        </mxCell>
        <mxCell id="6V_RxtZbmtCBJ1EOpkRF-485" style="edgeStyle=orthogonalEdgeStyle;rounded=0;orthogonalLoop=1;jettySize=auto;html=1;exitX=0;exitY=0.5;exitDx=0;exitDy=0;exitPerimeter=0;entryX=1;entryY=0.5;entryDx=0;entryDy=0;entryPerimeter=0;" edge="1" parent="1" source="6V_RxtZbmtCBJ1EOpkRF-401" target="6V_RxtZbmtCBJ1EOpkRF-449">
          <mxGeometry relative="1" as="geometry" />
        </mxCell>
        <mxCell id="6V_RxtZbmtCBJ1EOpkRF-486" style="edgeStyle=orthogonalEdgeStyle;rounded=0;orthogonalLoop=1;jettySize=auto;html=1;exitX=0;exitY=0.5;exitDx=0;exitDy=0;exitPerimeter=0;entryX=1;entryY=0.5;entryDx=0;entryDy=0;entryPerimeter=0;" edge="1" parent="1" source="6V_RxtZbmtCBJ1EOpkRF-449" target="6V_RxtZbmtCBJ1EOpkRF-448">
          <mxGeometry relative="1" as="geometry" />
        </mxCell>
        <mxCell id="6V_RxtZbmtCBJ1EOpkRF-487" value="true" style="text;html=1;align=center;verticalAlign=middle;resizable=0;points=[];autosize=1;strokeColor=none;fillColor=none;" vertex="1" parent="1">
          <mxGeometry x="170" y="198" width="40" height="30" as="geometry" />
        </mxCell>
        <mxCell id="6V_RxtZbmtCBJ1EOpkRF-488" value="true" style="text;html=1;align=center;verticalAlign=middle;resizable=0;points=[];autosize=1;strokeColor=none;fillColor=none;" vertex="1" parent="1">
          <mxGeometry x="330" y="198" width="40" height="30" as="geometry" />
        </mxCell>
        <mxCell id="6V_RxtZbmtCBJ1EOpkRF-489" value="true" style="text;html=1;align=center;verticalAlign=middle;resizable=0;points=[];autosize=1;strokeColor=none;fillColor=none;" vertex="1" parent="1">
          <mxGeometry x="490" y="198" width="40" height="30" as="geometry" />
        </mxCell>
        <mxCell id="6V_RxtZbmtCBJ1EOpkRF-490" value="true" style="text;html=1;align=center;verticalAlign=middle;resizable=0;points=[];autosize=1;strokeColor=none;fillColor=none;" vertex="1" parent="1">
          <mxGeometry x="520" y="310" width="40" height="30" as="geometry" />
        </mxCell>
        <mxCell id="6V_RxtZbmtCBJ1EOpkRF-491" value="true" style="text;html=1;align=center;verticalAlign=middle;resizable=0;points=[];autosize=1;strokeColor=none;fillColor=none;" vertex="1" parent="1">
          <mxGeometry x="450" y="325" width="40" height="30" as="geometry" />
        </mxCell>
        <mxCell id="6V_RxtZbmtCBJ1EOpkRF-492" value="false" style="text;html=1;align=center;verticalAlign=middle;resizable=0;points=[];autosize=1;strokeColor=none;fillColor=none;" vertex="1" parent="1">
          <mxGeometry x="120" y="250" width="50" height="30" as="geometry" />
        </mxCell>
        <mxCell id="6V_RxtZbmtCBJ1EOpkRF-493" value="false" style="text;html=1;align=center;verticalAlign=middle;resizable=0;points=[];autosize=1;strokeColor=none;fillColor=none;" vertex="1" parent="1">
          <mxGeometry x="280" y="250" width="50" height="30" as="geometry" />
        </mxCell>
        <mxCell id="6V_RxtZbmtCBJ1EOpkRF-494" value="false" style="text;html=1;align=center;verticalAlign=middle;resizable=0;points=[];autosize=1;strokeColor=none;fillColor=none;" vertex="1" parent="1">
          <mxGeometry x="440" y="250" width="50" height="30" as="geometry" />
        </mxCell>
        <mxCell id="6V_RxtZbmtCBJ1EOpkRF-495" value="false" style="text;html=1;align=center;verticalAlign=middle;resizable=0;points=[];autosize=1;strokeColor=none;fillColor=none;" vertex="1" parent="1">
          <mxGeometry x="570" y="280" width="50" height="30" as="geometry" />
        </mxCell>
        <mxCell id="6V_RxtZbmtCBJ1EOpkRF-496" value="false" style="text;html=1;align=center;verticalAlign=middle;resizable=0;points=[];autosize=1;strokeColor=none;fillColor=none;" vertex="1" parent="1">
          <mxGeometry x="440" y="380" width="50" height="30" as="geometry" />
        </mxCell>
      </root>
    </mxGraphModel>
  </diagram>
</mxfile>
